<svg xmlns="http://www.w3.org/2000/svg" xmlns:xlink="http://www.w3.org/1999/xlink" aria-hidden="true" role="img" class="iconify iconify--logos" width="31.88" height="32" preserveAspectRatio="xMidYMid meet" viewBox="0 0 256 257"><defs><linearGradient id="IconifyId1813088fe1fbc01fb466" x1="-.828" x2="1.807" y1="-.18" y2="1.361"><stop offset="0%" stop-color="#F46820"></stop><stop offset="100%" stop-color="#C93016"></stop></linearGradient></defs><path d="M178.504 256.504c0-22.777-18.465-41.242-41.242-41.242s-41.242 18.465-41.242 41.242s18.465 41.242 41.242 41.242 41.242-18.465 41.242-41.242Z" fill="url(#IconifyId1813088fe1fbc01fb466)"></path><path d="M39.087 47.428C61.88 70.205 61.88 107.12 39.087 129.897c-22.777 22.793-59.692 22.793-82.469 0c-22.793-22.777-22.793-59.692 0-82.469c22.777-22.777 59.692-22.777 82.469 0Z" fill="#FF9F62" transform="matrix(.86634.50002-.49978.86648 17.366-86.049)"></path><path d="M115.569 117.472c0-63.865-51.773-115.638-115.638-115.638s-115.638 51.773-115.638 115.638s51.773 115.638 115.638 115.638 115.638-51.773 115.638-115.638Z" fill="#FFA77A" transform="matrix(.86634.50002-.49978.86648 17.366-86.049)"></path></svg>